# File created by Blade
# Date/Time:  Thu Jan 22 16:52:56 2015
# Frame Rate: 120.000 fps
#------------------------------------------------------
:FULLY-SPECIFIED
:DEGREES
2219
root 3.025657 3.224278 -0.286912 -45.404566 1.772724 1.868638
RightUpLeg -33.110300 -26.794948 -38.497316
RightLeg 2.454749 -0.000000 -0.000000
RightFoot 3.899367 -28.420349 30.841912
RightToeBase 6.296586 -0.000000 -0.000000
LeftUpLeg -37.899987 24.234461 20.664284
LeftLeg 0.658088 -0.000000 -0.000000
LeftFoot 10.233219 30.809325 -35.514977
LeftToeBase -1.366530 -0.000000 0.000000
Spine 67.726103 5.512866 6.608629
RightShoulder -11.993581 -32.219809 -9.960601
RightArm 8.617857 -15.298219 64.124231
RightForeArm -8.741601 -0.000000 75.218525
RightHand 17.424762 -0.000000 -36.473801
RightHandThumb1 -24.326973 -0.000000 -32.862282
LeftShoulder 12.455718 12.449091 38.173341
LeftArm 0.429193 11.033357 -84.186722
LeftForeArm 46.255227 0.000000 67.424378
LeftHand -15.882153 -0.000000 21.441675
LeftHandThumb1 -26.253704 0.000000 33.147579
Head -19.908856 -0.514857 13.805965
2220
root 3.027860 3.220865 -0.272848 -45.605599 1.791212 2.027202
RightUpLeg -32.977407 -26.532149 -38.740694
RightLeg 2.426603 -0.000000 -0.000000
RightFoot 3.846052 -28.535718 31.027310
RightToeBase 6.431698 -0.000000 -0.000000
LeftUpLeg -37.558933 24.303962 20.642378
LeftLeg 0.495569 -0.000000 -0.000000
LeftFoot 10.311681 30.958243 -35.626801
LeftToeBase -1.341186 -0.000000 0.000000
Spine 67.611938 5.554373 6.448080
RightShoulder -12.281112 -32.647691 -9.678334
RightArm 8.595123 -16.825456 64.719527
RightForeArm -10.415906 0.000000 75.192027
RightHand 17.851847 -0.000000 -37.011305
RightHandThumb1 -24.326973 -0.000000 -32.862282
LeftShoulder 12.294833 12.607317 37.892789
LeftArm 0.097353 12.128302 -85.046088
LeftForeArm 48.811151 -0.000000 67.014823
LeftHand -16.101655 0.000000 23.752865
LeftHandThumb1 -26.253704 0.000000 33.147579
Head -19.764300 -0.611888 13.712994
2221
root 3.028672 3.208629 -0.257999 -45.764857 1.840152 2.182662
RightUpLeg -32.897184 -26.289581 -39.008729
RightLeg 2.448945 -0.000000 -0.000000
RightFoot 3.859887 -28.667822 31.072942
RightToeBase 6.460079 -0.000000 -0.000000
LeftUpLeg -37.308324 24.337942 20.605188
LeftLeg 0.404491 -0.000000 -0.000000
LeftFoot 10.401874 31.105435 -35.693532
LeftToeBase -1.273661 -0.000000 0.000000
Spine 67.407542 5.652874 6.335390
RightShoulder -12.639298 -33.042228 -9.334080
RightArm 8.508176 -18.292148 65.337969
RightForeArm -11.746814 -0.000000 75.099263
RightHand 18.272750 -0.000000 -37.321316
RightHandThumb1 -24.326973 -0.000000 -32.862282
LeftShoulder 12.198960 12.775385 37.700005
LeftArm -0.155475 13.018305 -85.914689
LeftForeArm 51.152962 -0.000000 66.572631
LeftHand -16.088539 0.000000 25.459144
LeftHandThumb1 -26.253704 0.000000 33.147579
Head -19.577023 -0.835690 13.697395
2222
root 3.030863 3.206290 -0.246857 -46.051583 1.800534 2.198806
RightUpLeg -32.642299 -26.016037 -39.142645
RightLeg 2.412047 -0.000000 -0.000000
RightFoot 3.956430 -28.793974 31.089638
RightToeBase 6.396964 -0.000000 -0.000000
LeftUpLeg -36.948349 24.229521 20.821748
LeftLeg 0.363016 -0.000000 -0.000000
LeftFoot 10.391643 31.271108 -35.819015
LeftToeBase -1.184010 -0.000000 0.000000
Spine 67.335284 5.570812 6.378523
RightShoulder -12.976534 -33.418776 -9.151095
RightArm 8.570559 -19.800484 65.840583
RightForeArm -12.842472 0.000000 74.860786
RightHand 18.596916 0.000000 -37.652219
RightHandThumb1 -24.326973 -0.000000 -32.862282
LeftShoulder 12.021106 12.937184 37.386552
LeftArm -0.406326 13.772714 -86.798784
LeftForeArm 53.206560 0.000000 66.068229
LeftHand -15.896294 0.000000 27.397542
LeftHandThumb1 -26.253704 0.000000 33.147579
Head -19.375697 -0.974862 13.493716
2223
root 3.026882 3.195983 -0.234667 -46.295036 1.768583 2.216377
RightUpLeg -32.444330 -25.740212 -39.274407
RightLeg 2.402462 -0.000000 -0.000000
RightFoot 4.000837 -28.926818 31.066066
RightToeBase 6.399085 -0.000000 -0.000000
LeftUpLeg -36.676820 24.141373 21.013932
LeftLeg 0.372571 -0.000000 -0.000000
LeftFoot 10.447229 31.394848 -35.864381
LeftToeBase -1.576085 -0.000000 0.000000
Spine 67.176284 5.530676 6.416407
RightShoulder -13.337908 -33.905027 -8.900101
RightArm 8.717096 -21.163735 66.339980
RightForeArm -13.993316 -0.000000 74.531574
RightHand 18.731694 0.000000 -37.833658
RightHandThumb1 -24.326973 -0.000000 -32.862282
LeftShoulder 11.820805 13.095213 37.032917
LeftArm -0.677177 14.462623 -87.588177
LeftForeArm 55.150161 -0.000000 65.579075
LeftHand -15.869220 -0.000000 29.310565
LeftHandThumb1 -26.253704 0.000000 33.147579
Head -19.177389 -1.181374 13.292147
2224
root 3.026074 3.188745 -0.221973 -46.553373 1.784075 2.274988
RightUpLeg -32.244902 -25.475454 -39.475192
RightLeg 2.424960 -0.000000 -0.000000
RightFoot 4.037599 -28.984146 31.067102
RightToeBase 6.271330 -0.000000 -0.000000
LeftUpLeg -36.378568 23.982968 21.189463
LeftLeg 0.411697 -0.000000 -0.000000
LeftFoot 10.438700 31.534230 -35.983833
LeftToeBase -1.518959 -0.000000 0.000000
Spine 67.007088 5.502168 6.342711
RightShoulder -13.587138 -34.174101 -8.713799
RightArm 8.617947 -22.401686 66.992724
RightForeArm -15.081309 0.000000 74.123429
RightHand 18.943562 -0.000000 -37.834391
RightHandThumb1 -24.326973 -0.000000 -32.862282
LeftShoulder 11.560848 13.334210 36.679072
LeftArm -0.871874 15.059699 -88.318222
LeftForeArm 56.783475 0.000000 65.071339
LeftHand -15.897208 -0.000000 30.846947
LeftHandThumb1 -26.253704 0.000000 33.147579
Head -18.939511 -1.264477 13.144372
2225
root 3.023546 3.181823 -0.209002 -46.819807 1.778667 2.358182
RightUpLeg -32.077669 -25.175840 -39.661345
RightLeg 2.467779 -0.000000 -0.000000
RightFoot 4.115769 -28.987788 30.958362
RightToeBase 6.254323 -0.000000 -0.000000
LeftUpLeg -36.072075 23.863423 21.358085
LeftLeg 0.477904 -0.000000 -0.000000
LeftFoot 10.396870 31.628526 -36.132557
LeftToeBase -1.077477 -0.000000 0.000000
Spine 66.823249 5.538238 6.310601
RightShoulder -13.930455 -34.574463 -8.422871
RightArm 8.706351 -23.587091 67.498329
RightForeArm -15.611957 -0.000000 73.607793
RightHand 19.458684 -0.000000 -37.811955
RightHandThumb1 -24.326973 -0.000000 -32.862282
LeftShoulder 11.342840 13.528841 36.322461
LeftArm -1.086077 15.602428 -88.990833
LeftForeArm 58.455784 -0.000000 64.495936
LeftHand -15.832982 0.000000 32.462580
LeftHandThumb1 -26.253704 0.000000 33.147579
Head -18.700172 -1.488292 12.992649
2226
root 3.020043 3.177103 -0.197326 -47.104390 1.774700 2.426928
RightUpLeg -31.892836 -24.886445 -39.831775
RightLeg 2.509305 -0.000000 -0.000000
RightFoot 4.166263 -28.979918 30.925411
RightToeBase 6.263989 -0.000000 -0.000000
LeftUpLeg -35.757552 23.707836 21.545931
LeftLeg 0.553596 -0.000000 -0.000000
LeftFoot 10.369928 31.743179 -36.230307
LeftToeBase -1.006414 -0.000000 0.000000
Spine 66.632806 5.576481 6.304261
RightShoulder -14.245919 -34.998101 -8.158084
RightArm 8.749956 -24.657622 68.045541
RightForeArm -16.356757 -0.000000 73.115367
RightHand 19.509416 0.000000 -37.485566
RightHandThumb1 -24.326973 -0.000000 -32.862282
LeftShoulder 11.140918 13.761898 35.949850
LeftArm -1.260119 16.115795 -89.554408
LeftForeArm 59.270317 -0.000000 64.015567
LeftHand -15.675716 -0.000000 33.961917
LeftHandThumb1 -26.253704 0.000000 33.147579
Head -18.425128 -1.620072 12.804374
2227
root 3.017586 3.171909 -0.186369 -47.391279 1.789488 2.487772
RightUpLeg -31.708087 -24.638050 -39.997564
RightLeg 2.566558 -0.000000 -0.000000
RightFoot 4.244761 -28.887394 30.889990
RightToeBase 6.284664 -0.000000 -0.000000
LeftUpLeg -35.468634 23.519382 21.720446
LeftLeg 0.663038 -0.000000 -0.000000
LeftFoot 10.364394 31.825999 -36.263072
LeftToeBase -0.990931 -0.000000 0.000000
Spine 66.414662 5.638821 6.327134
RightShoulder -14.598098 -35.330915 -7.860357
RightArm 8.718311 -25.716345 68.567003
RightForeArm -16.782179 0.000000 72.548965
RightHand 19.799414 -0.000000 -37.577835
RightHandThumb1 -24.326973 -0.000000 -32.862282
LeftShoulder 10.932175 13.970897 35.632411
LeftArm -1.398368 16.653112 -90.097437
LeftForeArm 60.210589 0.000000 63.488545
LeftHand -15.436051 -0.000000 35.071392
LeftHandThumb1 -26.253704 0.000000 33.147579
Head -18.142793 -1.866323 12.669603
